<?xml version="1.0" encoding="UTF-8"?>
<!DOCTYPE svg PUBLIC "-//W3C//DTD SVG 1.1//EN" "http://www.w3.org/Graphics/SVG/1.1/DTD/svg11.dtd">
<!-- Creator: CorelDRAW X7 -->
<?xml-stylesheet href="angkot_1.css" type="text/css"?>
<svg xmlns="http://www.w3.org/2000/svg" xml:space="preserve" width="23.3858in" height="33.1102in" version="1.1" style="shape-rendering:geometricPrecision; text-rendering:geometricPrecision; image-rendering:optimizeQuality; fill-rule:evenodd; clip-rule:evenodd"
viewBox="0 0 233858 331102"
 xmlns:xlink="http://www.w3.org/1999/xlink">
 <g id="Layer_x0020_1">
  <metadata id="CorelCorpID_0Corel-Layer"/>
  <path class="fil0" d="M137021 172418c-19211,149 -38420,297 -57630,446l-2788 -39c553,-1537 855,-3192 855,-4918 0,-8020 -6501,-14521 -14520,-14521 -8020,0 -14521,6501 -14521,14521 0,1584 254,3111 724,4538l-1914 -27c-5734,0 -11466,0 -17200,0 -1489,-4617 -2978,-9232 -4467,-13849 893,-1266 1787,-2531 2680,-3797 4095,-23007 18912,-40876 37079,-48024 41695,-4021 76690,-1564 117715,-2904 15414,14368 16007,35084 16475,47127 5425,1563 3137,12027 1843,19886 -10480,980 -21409,339 -31672,444 154,-809 236,-1644 236,-2497 0,-7312 -5927,-13239 -13237,-13239 -7311,0 -13238,5927 -13238,13239 0,1222 167,2404 476,3528 -2299,79 -4598,117 -6896,86z"/>
  <path class="fil1" d="M28240 154772l29037 -240c-5206,2207 -8860,7364 -8860,13375 0,1623 266,3186 759,4644l-19149 -133c-1489,-4617 -2978,-9232 -4467,-13849 893,-1266 1787,-2531 2680,-3797zm40134 -332l134580 -1114c1148,7726 -712,12191 -1602,17531 -10557,493 -21171,870 -31829,1153 257,-1026 393,-2100 393,-3206 0,-7312 -5927,-13239 -13237,-13239 -7311,0 -13238,5927 -13238,13239 0,1291 186,2539 530,3720 -22325,314 -44802,308 -67331,198 529,-1507 818,-3127 818,-4815 0,-6098 -3759,-11315 -9084,-13467z"/>
  <path class="fil2 str0" d="M36565 168812c973,-35 -1646,-14399 1260,-14595 5750,-386 14643,355 22105,-519 971,-204 1976,-312 3008,-312 1186,0 2339,142 3441,411 3745,65 6838,127 8602,112 4468,-36 7601,-63 9384,-3427 0,-13472 1769,-34983 0,-37958 -1770,-2976 -12920,-1897 -20549,-1230 -7629,668 -27251,26571 -27251,28146 0,9790 0,19582 0,29372z"/>
  <polygon class="fil3 str1" points="72040,136990 78577,136990 78577,138347 72040,138347 "/>
  <path class="fil3 str2" d="M47662 132937l34789 0 0 -19086c-22115,-1695 -20944,481 -34789,14395l0 4691z"/>
  <circle class="fil4 str3" cx="62826" cy="168321" r="2531"/>
  <ellipse class="fil2 str4" cx="156743" cy="169102" rx="10999" ry="11168"/>
  <circle class="fil4 str3" cx="156743" cy="169291" r="2531"/>
  <rect class="fil0 str5" x="89130" y="110542" width="32164" height="58522" rx="3431" ry="3431"/>
  <path class="fil1 str0" d="M89838 158805c10249,0 20497,0 30747,0 0,3416 709,6031 -379,9338 -10249,0 -19207,400 -29456,400 -1620,-3416 -912,-6322 -912,-9738z"/>
  <line class="fil2 str6" x1="105212" y1="110542" x2="105211" y2= "158805" />
  <rect class="fil3 str2" x="90841" y="113357" width="12621" height="17949"/>
  <rect class="fil3 str2" x="106960" y="113357" width="12621" height="17949"/>
  <path class="fil3 str7" d="M125272 110654c15266,120 30753,-52 46102,-42l-6193 22379 -22814 0 -6 -22299 6 22299 -6 -22299 6 22299 -17095 0c0,-7445 0,-14892 0,-22337zm46102 -42l1345 2c3065,2 6126,16 9176,40 5287,4764 6858,11170 8153,17422 0,1639 0,3277 0,4915l-24867 0 6193 -22379z"/>
  <circle class="fil2 str5" cx="30443" cy="150794" r="2531"/>
  <ellipse class="fil2 str4" cx="63052" cy="168760" rx="10999" ry="11168"/>
 </g>
</svg>
