<?xml version="1.0" encoding="UTF-8"?>
<!DOCTYPE svg PUBLIC "-//W3C//DTD SVG 1.1//EN" "http://www.w3.org/Graphics/SVG/1.1/DTD/svg11.dtd">
<!-- Creator: CorelDRAW X7 -->
<?xml-stylesheet href="Bus_BRT_Kecil.css" type="text/css"?>
<svg xmlns="http://www.w3.org/2000/svg" xml:space="preserve" width="33.1102in" height="23.3858in" version="1.1" style="shape-rendering:geometricPrecision; text-rendering:geometricPrecision; image-rendering:optimizeQuality; fill-rule:evenodd; clip-rule:evenodd"
viewBox="0 0 331102 233858"
 xmlns:xlink="http://www.w3.org/1999/xlink">
 <defs>
 <linearGradient id="id0" gradientUnits="userSpaceOnUse" x1="150770" y1="116560" x2="151032" y2="83891.7">
  <stop offset="0" style="stop-opacity:1; stop-color:#ED3237"/>
  <stop offset="1" style="stop-opacity:1; stop-color:#FEFEFE"/>
 </linearGradient>
 </defs>
 <g id="Layer_x0020_1">
  <metadata id="CorelCorpID_0Corel-Layer"/>
  <path class="fil0 str0" d="M56273 69836c63688,-2565 129147,-202 194856,2815 3974,16096 3485,37523 2607,55028 -11984,2600 -29491,4031 -43227,2615l-1971 0c-43,-6786 -4586,-12272 -10183,-12272 -5599,0 -10142,5489 -10183,12277 -25089,53 -49168,565 -74291,603 81,-628 123,-1272 123,-1927 0,-6831 -4559,-12369 -10183,-12369 -5624,0 -10184,5538 -10184,12369 0,754 56,1492 162,2209 -1443,21 -2857,33 -4223,33 -12809,470 -25990,1513 -40791,-2309 -4205,-21729 2479,-53722 7488,-59072z"/>
  <path class="fil1 str1" d="M55994 69836c1916,-76 3741,72 5657,-4 -958,12651 -2301,25104 -3259,37755 -4673,268 -7133,694 -10225,-790 763,-12089 2370,-27329 7827,-36961z"/>
  <path class="fil2" d="M47732 120252c384,3153 670,5503 1053,8656 13357,3808 27193,2779 40791,2309l4219 -61c-104,-708 -158,-1437 -158,-2181 0,-3211 1008,-6137 2660,-8335 -1545,10 -3106,17 -4702,17 -14317,0 -29546,-405 -43863,-405zm66152 10631l74288 -558c17,-3983 1585,-7521 4008,-9769l-80900 0c1690,2208 2724,5167 2724,8419 0,649 -41,1286 -120,1908zm94654 -589l1971 0c16262,1416 29498,-439 43227,-2615 117,-2671 203,-4634 320,-7305 -14806,-217 -29329,154 -44135,82 -1823,0 -3645,12 -5468,28 2461,2238 4059,5797 4085,9810z"/>
  <path class="fil3 str2" d="M253896 124026c-46718,9489 -103002,-38691 -143808,-4800"/>
  <path class="fil3 str3" d="M241144 129725c-46719,9489 -90250,-38290 -131056,-4399"/>
  <path class="fil4 str4" d="M47709 113736c3177,4380 9229,658 11543,-1315 771,1710 397,3884 0,5131 -2314,5104 -7363,4675 -11196,2637 -115,-2151 -231,-4302 -347,-6453z"/>
  <path class="fil5 str5" d="M85451 95091c18326,199 37004,402 55505,603 8410,0 16820,0 25230,0 26799,0 53935,1056 80734,1056 3448,-6103 3869,-15173 1682,-21779 -60102,-2190 -126275,-3423 -180811,-2317 -9195,6582 -5481,30517 -6392,44462 13568,-4752 20052,-14312 24052,-22025z"/>
  <path class="fil2 str6" d="M122327 68763c1570,-1468 3141,-2937 4711,-4405 22314,0 45133,0 66942,2203 1402,1293 2803,2587 4204,3880 -25286,-559 -50571,-1119 -75857,-1678z"/>
  <polygon class="fil6 str7" points="250491,108986 253813,108986 253813,120252 250491,120252 "/>
  <line class="fil3 str0" x1="61335" y1="117116" x2="61254" y2= "131216" />
  <line class="fil3 str0" x1="80844" y1="131560" x2="81461" y2= "72428" />
  <line class="fil3 str0" x1="61416" y1="94796" x2="246920" y2= "96750" />
  <path class="fil3 str8" d="M253896 126926c-46718,9489 -103002,-38691 -143808,-4800"/>
  <polygon class="fil5 str0" points="140411,72965 170237,72965 170237,113097 140411,113097 "/>
  <line class="fil3 str0" x1="155324" y1="72965" x2="155324" y2= "113097" />
  <line class="fil3 str0" x1="110472" y1="72242" x2="110296" y2= "95361" />
  <line class="fil3 str0" x1="195940" y1="73359" x2="195772" y2= "96212" />
  <line class="fil3 str0" x1="224549" y1="74158" x2="224385" y2= "96513" />
  <path class="fil1" d="M183380 103966l0 2655c0,54 13,94 36,121 24,27 66,49 127,67l0 84 -1093 0 0 -84c62,-18 104,-40 127,-67 24,-27 36,-67 36,-121l0 -2655 -1082 0c-51,0 -90,11 -117,35 -28,23 -50,66 -67,128l-84 0 0 -904 84 0c18,62 41,104 67,128 27,24 66,35 117,35l2929 0c53,0 93,-11 120,-35 27,-24 50,-66 67,-128l84 0 0 904 -84 0c-17,-62 -40,-105 -67,-128 -27,-24 -67,-35 -120,-35l-1080 0zm2554 1745l0 916c0,53 12,93 36,122 24,28 66,52 127,70l0 74 -1014 0 0 -74c59,-15 101,-37 126,-66 25,-29 37,-70 37,-124l0 -2347c0,-53 -12,-93 -36,-121 -24,-27 -66,-50 -127,-69l0 -73 1885 0c245,0 431,12 560,36 129,26 243,70 344,135 208,135 311,356 311,661 0,233 -64,414 -192,545 -127,131 -333,225 -618,283l547 758c100,141 180,236 239,286 59,51 127,82 203,96l0 74 -1211 0 0 -74c89,-23 134,-62 134,-115 0,-37 -28,-95 -83,-171l-577 -822 -691 0zm0 -521l1041 0c157,0 275,-17 350,-51 106,-46 159,-138 159,-274 0,-122 -37,-206 -112,-254 -74,-49 -207,-72 -397,-72l-1041 0 0 651zm5064 983l-1324 0 -149 313c-37,75 -55,134 -55,176 0,83 56,135 165,157l0 74 -1056 0 0 -74c65,-10 113,-30 144,-58 33,-30 70,-87 113,-172l1049 -2123c39,-80 58,-150 58,-210 0,-70 -47,-124 -143,-164l0 -73 1116 0 0 73c-93,38 -141,96 -141,174 0,56 21,126 64,208l1089 2058c59,112 107,185 141,217 34,34 87,56 157,70l0 74 -1172 0 0 -74c112,-18 168,-71 168,-156 0,-52 -22,-118 -64,-197l-160 -293zm-209 -405l-470 -923 -447 923 917 0zm2466 -769l0 1628c0,53 12,94 36,123 25,29 67,52 126,69l0 74 -951 0 0 -74c60,-15 102,-37 127,-66 24,-29 36,-70 36,-124l0 -2347c0,-53 -12,-93 -36,-121 -23,-27 -65,-50 -127,-69l0 -73 1103 0 0 73c-75,19 -113,52 -113,100 0,41 27,89 82,144l1545 1527 0 -1581c0,-53 -12,-93 -36,-122 -23,-28 -65,-51 -127,-68l0 -73 951 0 0 73c-61,17 -103,40 -127,68 -23,29 -36,69 -36,121l0 2346c0,53 13,93 36,122 24,28 66,52 127,70l0 74 -1028 0 0 -74c76,-15 113,-46 113,-93 0,-25 -10,-49 -30,-75 -22,-25 -68,-75 -141,-150l-1530 -1502zm5883 -721l-347 670 -61 -34c0,-56 -19,-100 -55,-133 -97,-87 -241,-159 -431,-215 -190,-57 -383,-85 -578,-85 -166,0 -314,23 -442,69 -184,67 -277,164 -277,291 0,83 44,143 133,178 89,35 261,63 517,84l405 30c354,28 624,96 808,205 103,63 188,145 254,247 84,128 126,273 126,434 0,292 -131,524 -395,693 -252,162 -592,244 -1022,244 -432,0 -851,-91 -1254,-274 -28,-12 -51,-19 -70,-19 -34,0 -65,21 -95,63l-64 -27 295 -702 64 25c0,11 0,18 0,21 0,45 17,82 52,113 85,76 233,140 444,196 210,56 418,84 623,84 181,0 344,-24 488,-72 178,-59 267,-153 267,-283 0,-105 -61,-178 -185,-219 -82,-27 -230,-51 -445,-69l-402 -33c-218,-18 -384,-40 -499,-68 -114,-27 -214,-67 -300,-120 -110,-69 -195,-162 -257,-280 -62,-118 -93,-248 -93,-388 0,-315 136,-556 407,-723 246,-150 551,-225 914,-225 197,0 381,21 551,65 171,44 374,121 610,231 70,32 120,49 147,49 28,0 63,-19 106,-57l61 34z"/>
  <path class="fil1" d="M200581 108223l-603 1191 -104 -60c3,-24 4,-44 4,-59 0,-83 -72,-175 -215,-271 -441,-306 -957,-459 -1550,-459 -262,0 -494,32 -695,96 -145,51 -263,124 -354,224 -90,99 -136,206 -136,323 0,191 116,321 345,389 119,36 373,73 764,113l582 59c345,37 626,88 840,152 214,65 402,155 568,271 168,122 301,281 399,478 97,199 146,410 146,635 0,356 -115,674 -344,951 -207,251 -530,439 -968,559 -326,92 -675,138 -1049,138 -669,0 -1329,-161 -1982,-481 -138,-64 -220,-96 -248,-96 -32,0 -82,28 -152,81l-108 -55 550 -1241 107 52c0,22 0,38 0,48 0,112 53,214 158,308 161,143 410,267 745,370 337,104 656,156 957,156 329,0 610,-56 841,-167 129,-62 232,-144 308,-247 77,-102 115,-210 115,-321 0,-168 -90,-289 -271,-361 -126,-49 -381,-95 -764,-136l-572 -60c-382,-40 -654,-78 -812,-114 -158,-35 -316,-93 -475,-173 -225,-111 -402,-278 -530,-501 -116,-201 -174,-431 -174,-691 0,-429 146,-783 441,-1063 386,-369 966,-554 1739,-554 322,0 625,33 903,99 280,66 628,186 1046,362 143,57 231,84 264,84 51,0 111,-27 180,-84l104 55zm1898 2870l0 1017 2627 0c76,0 135,-16 176,-50 40,-35 73,-95 97,-185l106 0 0 1222 -106 0c-23,-86 -54,-147 -96,-182 -42,-36 -101,-53 -177,-53l-3857 0 0 -107c86,-22 147,-54 182,-96 36,-41 54,-101 54,-178l0 -3391c0,-77 -18,-135 -52,-175 -34,-39 -95,-73 -184,-100l0 -106 3747 0c78,0 138,-18 178,-52 42,-34 75,-95 99,-183l98 0 0 1222 -98 0c-24,-90 -57,-150 -98,-185 -41,-34 -101,-50 -179,-50l-2517 0 0 911 1560 0c76,0 136,-18 176,-52 41,-34 75,-95 101,-184l99 0 0 1192 -99 0c-24,-87 -57,-148 -97,-183 -42,-34 -101,-52 -180,-52l-1560 0zm6295 1769l-1515 -2726 0 2342c0,76 18,136 52,176 34,41 95,75 184,101l0 107 -1374 0 0 -107c86,-22 146,-54 182,-96 35,-41 53,-101 53,-178l0 -3391c0,-77 -18,-135 -52,-176 -34,-42 -95,-74 -183,-99l0 -106 1749 0 0 106c-115,37 -173,108 -173,212 0,101 42,224 125,369l1034 1878 1041 -1851c119,-195 179,-333 179,-415 0,-101 -61,-166 -183,-193l0 -106 1708 0 0 106c-88,25 -149,57 -183,98 -34,42 -52,100 -52,176l0 3389c0,76 18,136 52,178 34,41 95,74 183,99l0 107 -1465 0 0 -107c86,-22 147,-54 183,-96 35,-41 53,-101 53,-177l0 -2346 -1598 2726zm6708 -1040l-1912 0 -216 451c-53,109 -79,195 -79,256 0,119 80,195 238,226l0 107 -1526 0 0 -107c94,-15 164,-43 209,-84 47,-43 100,-126 162,-248l1516 -3067c57,-115 85,-217 85,-304 0,-101 -69,-180 -208,-237l0 -106 1613 0 0 106c-135,55 -203,138 -203,252 0,81 30,181 92,300l1573 2973c86,162 154,267 203,314 50,48 126,81 227,101l0 107 -1693 0 0 -107c162,-26 243,-102 243,-225 0,-76 -32,-171 -92,-284l-232 -424zm-301 -585l-680 -1333 -646 1333 1326 0zm3653 -83l0 1324c0,76 17,134 52,176 34,41 94,75 183,101l0 107 -1465 0 0 -107c86,-22 147,-54 182,-96 35,-41 53,-101 53,-178l0 -3391c0,-77 -18,-135 -52,-175 -34,-39 -95,-73 -183,-100l0 -106 2724 0c353,0 622,18 808,53 186,37 352,102 498,195 300,195 449,514 449,955 0,336 -93,598 -277,787 -184,189 -482,326 -894,409l791 1096c144,202 260,340 346,412 84,74 183,119 292,139l0 107 -1750 0 0 -107c129,-34 194,-89 194,-167 0,-53 -40,-136 -119,-246l-834 -1188 -998 0zm0 -752l1503 0c227,0 397,-25 506,-75 153,-65 230,-198 230,-396 0,-175 -54,-297 -162,-366 -107,-70 -300,-104 -574,-104l-1503 0 0 941zm7315 1420l-1912 0 -216 451c-53,109 -78,195 -78,256 0,119 79,195 238,226l0 107 -1526 0 0 -107c93,-15 163,-43 208,-84 47,-43 100,-126 162,-248l1516 -3067c57,-115 85,-217 85,-304 0,-101 -68,-180 -208,-237l0 -106 1614 0 0 106c-136,55 -204,138 -204,252 0,81 30,181 92,300l1573 2973c86,162 154,267 204,314 49,48 125,81 226,101l0 107 -1693 0 0 -107c162,-26 243,-102 243,-225 0,-76 -31,-171 -92,-284l-232 -424zm-301 -585l-679 -1333 -647 1333 1326 0zm3562 -1111l0 2352c0,76 18,136 53,178 35,41 96,74 182,99l0 107 -1374 0 0 -107c86,-22 147,-54 182,-96 36,-41 53,-101 53,-178l0 -3391c0,-77 -17,-135 -51,-175 -35,-39 -95,-73 -184,-100l0 -106 1593 0 0 106c-109,27 -163,75 -163,145 0,59 39,129 119,207l2232 2207 0 -2284c0,-77 -18,-135 -52,-176 -34,-42 -95,-74 -184,-99l0 -106 1374 0 0 106c-88,25 -149,57 -183,98 -34,42 -52,100 -52,176l0 3389c0,76 18,134 52,176 34,41 95,75 183,101l0 107 -1485 0 0 -107c109,-21 163,-67 163,-135 0,-35 -15,-71 -44,-107 -30,-37 -98,-109 -204,-217l-2210 -2170zm8249 1134l-944 0c-79,0 -139,18 -179,52 -42,34 -74,95 -99,183l-99 0 0 -1100 99 0c25,87 57,148 99,183 40,34 100,52 179,52l1977 0 0 106c-86,25 -147,61 -183,108 -35,46 -53,114 -53,201l0 878c0,76 18,135 53,178 36,42 97,75 183,100l0 84c-801,445 -1598,668 -2394,668 -687,0 -1243,-162 -1668,-486 -230,-178 -415,-399 -556,-660 -166,-313 -248,-646 -248,-999 0,-491 150,-926 451,-1307 470,-588 1163,-883 2082,-883 402,0 861,90 1377,271 205,69 326,105 360,105 41,0 91,-20 148,-61l91 49 -490 1046 -88 -45c0,-10 0,-17 0,-22 0,-92 -93,-185 -275,-283 -339,-181 -703,-270 -1092,-270 -448,0 -815,122 -1102,367 -302,256 -453,602 -453,1037 0,407 137,733 411,977 283,249 677,374 1186,374 485,0 893,-89 1227,-270l0 -633z"/>
  <ellipse class="fil7" cx="198440" cy="128555" rx="10009" ry="10162"/>
  <circle class="fil8" cx="198440" cy="128555" r="5370"/>
  <ellipse class="fil7" cx="103719" cy="127472" rx="10321" ry="10479"/>
  <circle class="fil8" cx="103719" cy="127472" r="5537"/>
 </g>
</svg>
