<?xml version="1.0" encoding="UTF-8"?>
<!DOCTYPE svg PUBLIC "-//W3C//DTD SVG 1.1//EN" "http://www.w3.org/Graphics/SVG/1.1/DTD/svg11.dtd">
<!-- Creator: CorelDRAW X7 -->
<?xml-stylesheet href="angkot_moncong_panjang.css" type="text/css"?>
<svg xmlns="http://www.w3.org/2000/svg" xml:space="preserve" width="23.3858in" height="33.1102in" version="1.1" style="shape-rendering:geometricPrecision; text-rendering:geometricPrecision; image-rendering:optimizeQuality; fill-rule:evenodd; clip-rule:evenodd"
viewBox="0 0 233858 331102"
 xmlns:xlink="http://www.w3.org/1999/xlink">
 <g id="Layer_x0020_1">
  <metadata id="CorelCorpID_0Corel-Layer"/>
  <path class="fil0 str0" d="M23133 194157c-3815,103 -7630,207 -11446,310 -4330,-3816 -4330,-8868 -4330,-15158 8043,-21654 27840,-18251 50113,-22272 12739,-11033 28261,-25469 52136,-29387 35003,-4641 71403,-3949 104543,-2475 12528,22788 12528,41554 9126,58774 1134,103 2268,206 3402,310 0,5258 0,7733 -3712,10208 -12889,0 -25469,580 -38512,580 -12580,0 -25624,1894 -38203,1894 -29594,0 -57486,0 -87079,0 -1636,-14 -3299,-79 -4982,-179 1436,-2331 2267,-5087 2267,-8040 0,-8387 -6697,-15187 -14958,-15187 -8260,0 -14957,6800 -14957,15187 0,1972 370,3855 1043,5584 -1502,-83 -2988,-136 -4451,-149z"/>
  <rect class="fil0 str1" x="117241" y="133671" width="34750" height="59177" rx="3707" ry="3469"/>
  <path class="fil1 str2" d="M118325 182639c10258,0 20516,0 30774,0 0,3299 710,5824 -378,9019 -10259,0 -19225,385 -29484,385 -1621,-3298 -912,-6105 -912,-9404z"/>
  <path class="fil1 str1" d="M7357 179037c7151,-181 14303,-362 21454,-543 4589,-8417 22324,-7029 25366,271 20947,-90 41893,-181 62840,-271 0,4846 0,9692 0,14538 9265,0 18531,0 27796,0 1701,-22478 27995,-20313 34337,-14538 15113,-741 29995,209 45108,-532 -405,2469 40,3479 -983,5715 1134,103 2268,206 3402,310 -139,4452 0,8013 -3712,10208 -12837,193 -25675,386 -38512,580 -12735,631 -25469,1263 -38203,1894 -29027,0 -58053,0 -87079,0l-4711 -364c1269,-2231 1996,-4821 1996,-7583 0,-8387 -6697,-15187 -14958,-15187 -8260,0 -14957,6800 -14957,15187 0,1942 359,3798 1013,5505l-4421 -342c-3815,103 -7630,207 -11446,310 -4330,-3739 -4330,-9501 -4330,-15158z"/>
  <path class="fil2 str2" d="M8206 177968c4862,140 9724,280 14585,420 0,-5566 0,-8814 -7423,-11132 -3055,3306 -5198,6565 -7162,10712z"/>
  <circle class="fil3 str3" cx="41521" cy="188601" r="3442"/>
  <ellipse class="fil4 str4" cx="41521" cy="188601" rx="12470" ry="12661"/>
  <ellipse class="fil2 str5" cx="163321" cy="192670" rx="12470" ry="12661"/>
  <ellipse class="fil4 str4" cx="163321" cy="192670" rx="11318" ry="11492"/>
  <circle class="fil3 str3" cx="163321" cy="192670" r="3442"/>
  <rect class="fil4 str1" x="60251" y="179778" width="47368" height="12265" rx="1801" ry="1536"/>
  <path class="fil4 str1" d="M60251 159438c12422,-14956 24795,-24961 49590,-24961 -1574,8320 -3149,16640 -4723,24961 1574,0 787,0 2361,0 0,11269 150,22539 150,33809 -16530,0 -30848,0 -47378,0 0,-11270 0,-22540 0,-33809z"/>
  <polygon class="fil2 str6" points="94742,164706 103630,164706 103630,166552 94742,166552 "/>
  <path class="fil2 str1" d="M101568 159320c-12180,309 -24360,619 -36539,928 8154,-11147 18424,-22295 40100,-22295 0,7122 -1704,14554 -3561,21367z"/>
  <line class="fil4 str2" x1="134616" y1="133671" x2="134636" y2= "182639" />
  <rect class="fil2 str7" x="119103" y="136195" width="13886" height="19747"/>
  <rect class="fil2 str7" x="136292" y="136195" width="13886" height="19747"/>
  <path class="fil2 str8" d="M155743 133297c15156,120 30532,-52 45771,-41l-6149 22294 -22650 0 -5 -22215 5 22215 -5 -22215 5 22215 -16972 0c0,-7417 0,-14835 0,-22253zm45771 -41l1335 1c3043,3 6082,16 9110,40 5249,4746 6808,11127 8095,17356 0,1633 0,3265 0,4897l-24689 0 6149 -22294z"/>
 </g>
</svg>
