<?xml version="1.0" encoding="UTF-8"?>
<!DOCTYPE svg PUBLIC "-//W3C//DTD SVG 1.1//EN" "http://www.w3.org/Graphics/SVG/1.1/DTD/svg11.dtd">
<!-- Creator: CorelDRAW X7 -->
<?xml-stylesheet href="Bus_BRT_Besar.css" type="text/css"?>
<svg xmlns="http://www.w3.org/2000/svg" xml:space="preserve" width="33.1102in" height="23.3858in" version="1.1" style="shape-rendering:geometricPrecision; text-rendering:geometricPrecision; image-rendering:optimizeQuality; fill-rule:evenodd; clip-rule:evenodd"
viewBox="0 0 331102 233858"
 xmlns:xlink="http://www.w3.org/1999/xlink">
 <defs>
 <linearGradient id="id0" gradientUnits="userSpaceOnUse" x1="164934" y1="143469" x2="164261" y2="110674">
  <stop offset="0" style="stop-opacity:1; stop-color:#91D8F7"/>
  <stop offset="0.490196" style="stop-opacity:1; stop-color:#C7EBFA"/>
  <stop offset="1" style="stop-opacity:1; stop-color:#FEFEFE"/>
 </linearGradient>
 </defs>
 <g id="Layer_x0020_1">
  <metadata id="CorelCorpID_0Corel-Layer"/>
  <path class="fil0 str0" d="M20973 88511c96665,-3255 196017,-257 295749,3573 6032,20423 5290,47611 3957,69820 -18189,3300 -44760,5115 -65608,3319l-2993 0c-65,-8610 -6959,-15571 -15455,-15571 -8498,0 -15393,6964 -15455,15577 -38080,68 -74628,717 -112758,766 123,-797 187,-1614 187,-2446 0,-8667 -6921,-15694 -15457,-15694 -8536,0 -15457,7027 -15457,15694 0,957 85,1894 247,2803 -2191,26 -4337,43 -6410,43 -19442,595 -39447,1919 -61912,-2931 -6382,-27571 3763,-68165 11365,-74953z"/>
  <path class="fil1 str1" d="M20973 88511c3055,-96 5965,92 9019,-4 -1527,16051 -3668,31853 -5196,47904 -7450,340 -11374,881 -16303,-1002 1217,-15340 3778,-34676 12480,-46898z"/>
  <path class="fil2" d="M8010 152481c582,4001 1016,6983 1598,10983 20273,4832 41273,3527 61912,2931l6403 -79c-157,-898 -240,-1823 -240,-2767 0,-4074 1530,-7786 4038,-10576 -2345,13 -4714,22 -7137,22 -21730,0 -44844,-514 -66574,-514zm100404 13489l112753 -707c26,-5055 2406,-9544 6083,-12396l-122788 0c2565,2802 4135,6556 4135,10682 0,823 -63,1632 -183,2421zm143664 -747l2993 0c24682,1796 44771,-557 65608,-3319 178,-3388 309,-5879 487,-9267 -22473,-276 -44516,195 -66988,103 -2767,0 -5533,16 -8299,36 3734,2840 6161,7355 6199,12447z"/>
  <path class="fil1" d="M7682 148253l14696 250 54376 0 11983 0c-2725,821 -5136,2383 -7005,4458l-7148 34 -66574 -514c0,0 72,-4221 -328,-4228zm89861 250l1165 0 133005 1021 20933 -636 64588 636 -27 3072 -63029 144 -8288 45c-2582,-1967 -5791,-3133 -9267,-3133 -3524,0 -6773,1199 -9373,3215l-122788 0c-1857,-2027 -4235,-3556 -6919,-4364z"/>
  <path class="fil3 str2" d="M7912 144213c4032,5558 11711,835 14646,-1668 978,2170 504,4928 0,6510 -2935,6476 -9343,5933 -14205,3347 -147,-2730 -294,-5459 -441,-8189z"/>
  <path class="fil4 str3" d="M65260 120555c27814,253 56163,511 84244,766 12764,0 25529,0 38293,0 40676,0 81862,1340 122537,1340 5234,-7743 5872,-19252 2553,-27634 -91222,-2779 -191659,-4344 -274433,-2940 -13955,8351 -8318,38721 -9700,56416 20593,-6030 30435,-18161 36506,-27948z"/>
  <path class="fil5 str4" d="M121228 87150c2384,-1863 4768,-3726 7151,-5589 33868,0 68502,0 101604,2794 2127,1642 4254,3283 6381,4924 -38379,-710 -76757,-1419 -115136,-2129z"/>
  <polygon class="fil6 str5" points="317234,138186 321448,138186 321448,152481 317234,152481 "/>
  <line class="fil7 str0" x1="28754" y1="148503" x2="28651" y2= "166393" />
  <line class="fil7 str0" x1="58267" y1="166829" x2="59203" y2= "91800" />
  <line class="fil7 str0" x1="28779" y1="120182" x2="310334" y2= "122661" />
  <polygon class="fil4 str0" points="148677,92481 193946,92481 193946,143403 148677,143403 "/>
  <line class="fil7 str0" x1="171311" y1="92481" x2="171311" y2= "143403" />
  <line class="fil7 str0" x1="103235" y1="91564" x2="102968" y2= "120898" />
  <line class="fil7 str0" x1="232958" y1="92981" x2="232703" y2= "121978" />
  <line class="fil7 str0" x1="276380" y1="93995" x2="276130" y2= "122360" />
  <path class="fil8" d="M214599 129648l0 4000c0,81 18,141 54,182 35,41 99,74 191,100l0 127 -1646 0 0 -127c92,-26 155,-59 191,-100 35,-41 54,-101 54,-182l0 -4000 -1631 0c-76,0 -135,18 -176,53 -41,34 -76,99 -101,193l-126 0 0 -1362 126 0c28,94 62,157 102,193 41,36 99,53 175,53l4413 0c79,0 140,-17 181,-53 41,-36 75,-99 100,-193l127 0 0 1362 -127 0c-25,-94 -59,-159 -100,-193 -41,-35 -102,-53 -181,-53l-1626 0zm3846 2628l0 1381c0,80 19,140 54,184 36,42 99,78 192,105l0 111 -1528 0 0 -111c90,-23 153,-56 190,-100 37,-44 55,-105 55,-186l0 -3535c0,-81 -18,-142 -54,-182 -35,-41 -99,-77 -191,-105l0 -110 2840 0c368,0 649,18 843,55 194,38 367,105 519,203 312,203 468,536 468,996 0,350 -96,623 -289,821 -191,196 -502,339 -931,426l824 1142c151,211 271,355 360,430 89,77 192,124 305,145l0 111 -1824 0 0 -111c134,-35 202,-93 202,-174 0,-55 -41,-142 -124,-257l-870 -1239 -1041 0zm0 -783l1568 0c237,0 414,-27 527,-78 160,-69 240,-207 240,-413 0,-183 -56,-310 -169,-383 -112,-72 -312,-108 -598,-108l-1568 0 0 982zm7628 1480l-1993 0 -226 471c-55,113 -82,203 -82,266 0,124 83,203 248,236l0 111 -1591 0 0 -111c98,-16 170,-45 218,-88 49,-45 104,-131 169,-259l1580 -3197c60,-120 89,-226 89,-317 0,-105 -72,-187 -217,-247l0 -110 1682 0 0 110c-141,57 -212,144 -212,263 0,84 31,189 96,313l1640 3100c90,168 161,278 212,327 52,50 131,84 236,105l0 111 -1765 0 0 -111c169,-27 254,-107 254,-235 0,-79 -33,-178 -97,-296l-241 -442zm-314 -610l-708 -1390 -675 1390 1383 0zm3713 -1158l0 2452c0,80 19,142 56,185 37,44 100,78 190,104l0 111 -1433 0 0 -111c90,-23 153,-56 190,-100 37,-44 56,-105 56,-186l0 -3535c0,-81 -19,-142 -55,-182 -35,-41 -98,-77 -191,-105l0 -110 1661 0 0 110c-113,28 -170,78 -170,151 0,62 41,134 124,216l2327 2301 0 -2381c0,-81 -19,-142 -54,-184 -36,-43 -99,-78 -191,-103l0 -110 1432 0 0 110c-92,25 -155,60 -191,102 -36,43 -54,104 -54,183l0 3534c0,80 18,140 54,184 36,42 99,78 191,105l0 111 -1548 0 0 -111c113,-22 170,-70 170,-141 0,-37 -16,-74 -47,-112 -31,-38 -101,-113 -212,-226l-2305 -2262zm8863 -1087l-523 1009 -92 -50c0,-84 -28,-152 -82,-200 -146,-132 -364,-241 -650,-325 -286,-86 -577,-128 -871,-128 -249,0 -472,34 -665,104 -278,101 -418,247 -418,438 0,126 67,215 201,268 134,53 393,95 778,127l611 46c533,41 939,144 1217,309 155,93 283,217 383,372 127,192 190,410 190,653 0,440 -198,788 -595,1044 -380,244 -892,367 -1540,367 -651,0 -1282,-137 -1890,-413 -41,-18 -76,-28 -104,-28 -52,0 -99,32 -144,94l-96 -39 444 -1058 97 38c0,16 0,26 0,32 0,67 26,122 78,170 129,113 352,211 668,295 317,83 631,126 940,126 273,0 518,-36 734,-109 268,-88 403,-229 403,-426 0,-158 -93,-268 -279,-330 -124,-40 -347,-76 -670,-104l-607 -50c-327,-26 -577,-59 -750,-102 -173,-40 -323,-101 -453,-180 -165,-104 -294,-244 -386,-422 -94,-178 -140,-374 -140,-585 0,-475 204,-837 612,-1088 371,-227 830,-340 1377,-340 297,0 574,33 830,98 257,66 563,183 920,347 105,49 179,74 220,74 42,0 95,-27 159,-85l93 51z"/>
  <path class="fil9" d="M240509 136061l-909 1794 -156 -90c3,-36 5,-66 5,-89 0,-126 -108,-263 -324,-408 -663,-461 -1441,-692 -2334,-692 -395,0 -744,48 -1047,145 -219,76 -396,187 -533,337 -136,149 -204,311 -204,486 0,288 173,484 518,587 179,53 562,109 1151,170l877 89c520,56 943,132 1265,229 323,97 607,233 856,408 254,183 454,423 601,720 146,300 221,618 221,957 0,536 -174,1014 -519,1431 -312,380 -798,662 -1458,843 -491,139 -1018,208 -1580,208 -1008,0 -2003,-242 -2986,-725 -208,-97 -332,-144 -374,-144 -47,0 -124,41 -229,121l-162 -82 828 -1869 162 78c0,32 0,57 0,72 0,168 80,322 238,464 242,215 617,402 1122,558 507,156 988,234 1441,234 496,0 919,-83 1268,-251 194,-94 348,-217 463,-372 116,-154 173,-316 173,-484 0,-253 -135,-434 -408,-543 -190,-74 -573,-143 -1151,-206l-861 -90c-576,-61 -986,-118 -1224,-171 -238,-53 -476,-141 -715,-261 -339,-168 -606,-419 -798,-755 -175,-303 -263,-650 -263,-1041 0,-646 221,-1179 665,-1600 581,-557 1454,-835 2619,-835 486,0 941,49 1361,148 421,100 945,281 1576,545 215,86 347,128 396,128 78,0 168,-42 273,-128l156 84zm2859 4323l0 1532 3956 0c115,0 204,-25 265,-76 61,-51 111,-143 147,-278l160 0 0 1841 -160 0c-34,-130 -82,-221 -145,-275 -63,-53 -152,-80 -267,-80l-5809 0 0 -160c130,-34 221,-82 275,-145 53,-62 80,-152 80,-268l0 -5108c0,-116 -27,-204 -78,-263 -52,-59 -143,-111 -277,-151l0 -160 5644 0c118,0 207,-26 268,-78 63,-51 113,-143 149,-276l149 0 0 1841 -149 0c-36,-136 -86,-227 -147,-278 -63,-52 -152,-77 -270,-77l-3791 0 0 1373 2350 0c114,0 204,-27 265,-79 61,-51 112,-143 152,-276l149 0 0 1795 -149 0c-36,-131 -86,-223 -147,-276 -62,-51 -152,-78 -270,-78l-2350 0zm9482 2664l-2282 -4105 0 3528c0,114 27,204 78,265 52,61 143,112 277,152l0 160 -2070 0 0 -160c130,-34 221,-82 274,-145 54,-62 81,-152 81,-268l0 -5108c0,-116 -27,-204 -79,-265 -51,-63 -143,-112 -276,-149l0 -160 2636 0 0 160c-174,56 -261,162 -261,319 0,152 63,337 188,556l1558 2828 1568 -2788c179,-293 269,-501 269,-625 0,-152 -92,-250 -275,-290l0 -160 2573 0 0 160c-133,37 -225,86 -276,147 -52,63 -78,151 -78,265l0 5106c0,114 26,204 78,267 51,63 143,112 276,150l0 160 -2207 0 0 -160c130,-34 221,-82 275,-145 53,-62 80,-152 80,-266l0 -3534 -2407 4105zm10105 -1566l-2880 0 -326 680c-80,164 -118,294 -118,385 0,179 120,294 358,341l0 160 -2298 0 0 -160c141,-23 245,-65 314,-127 71,-65 151,-189 244,-374l2283 -4620c86,-173 128,-326 128,-457 0,-153 -103,-271 -313,-357l0 -160 2430 0 0 160c-203,82 -306,208 -306,380 0,122 45,272 139,451l2369 4479c129,244 232,402 307,473 74,72 188,122 341,152l0 160 -2550 0 0 -160c244,-40 366,-154 366,-339 0,-114 -48,-257 -139,-429l-349 -638zm-454 -881l-1023 -2009 -974 2009 1997 0zm5502 -126l0 1996c0,114 27,202 79,265 51,61 143,112 276,152l0 160 -2207 0 0 -160c130,-34 221,-82 274,-145 54,-62 80,-152 80,-268l0 -5108c0,-116 -26,-204 -78,-263 -51,-59 -143,-111 -276,-151l0 -160 4103 0c532,0 938,27 1218,80 280,56 530,153 749,294 452,293 677,774 677,1439 0,505 -139,899 -418,1185 -276,284 -726,490 -1345,616l1191 1650c217,305 391,513 520,622 128,110 277,179 441,209l0 160 -2636 0 0 -160c194,-51 291,-135 291,-251 0,-80 -59,-206 -179,-372l-1256 -1790 -1504 0zm0 -1132l2265 0c343,0 598,-38 762,-112 231,-99 347,-299 347,-597 0,-265 -82,-448 -244,-552 -162,-105 -452,-157 -865,-157l-2265 0 0 1418zm11020 2139l-2879 0 -326 680c-80,164 -119,294 -119,385 0,179 121,294 359,341l0 160 -2299 0 0 -160c141,-23 246,-65 315,-127 70,-65 150,-189 244,-374l2283 -4620c86,-173 128,-326 128,-457 0,-153 -103,-271 -313,-357l0 -160 2430 0 0 160c-204,82 -307,208 -307,380 0,122 46,272 139,451l2369 4479c130,244 233,402 307,473 75,72 189,122 341,152l0 160 -2550 0 0 -160c244,-40 366,-154 366,-339 0,-114 -47,-257 -139,-429l-349 -638zm-453 -881l-1024 -2009 -974 2009 1998 0zm5365 -1673l0 3543c0,114 26,204 80,267 53,63 145,112 274,150l0 160 -2069 0 0 -160c129,-34 221,-82 274,-145 53,-62 80,-152 80,-268l0 -5108c0,-116 -27,-204 -78,-263 -52,-59 -143,-111 -276,-151l0 -160 2399 0 0 160c-164,40 -246,113 -246,218 0,89 59,194 179,312l3362 3324 0 -3440c0,-116 -26,-204 -78,-265 -51,-63 -143,-112 -276,-149l0 -160 2070 0 0 160c-134,37 -225,86 -277,147 -51,63 -78,151 -78,265l0 5106c0,114 27,202 78,265 52,61 143,112 277,152l0 160 -2238 0 0 -160c164,-32 246,-101 246,-204 0,-53 -23,-106 -67,-162 -45,-55 -146,-164 -307,-326l-3329 -3268zm12426 1707l-1422 0c-120,0 -209,27 -270,79 -63,51 -111,143 -149,276l-148 0 0 -1658 148 0c38,131 86,223 149,276 61,52 150,78 270,78l2978 0 0 160c-130,39 -222,92 -275,162 -53,71 -80,172 -80,303l0 1323c0,115 27,204 80,269 53,63 145,112 275,151l0 125c-1207,671 -2408,1007 -3606,1007 -1035,0 -1872,-244 -2512,-732 -347,-269 -626,-601 -839,-995 -250,-471 -374,-972 -374,-1504 0,-739 227,-1395 681,-1969 707,-886 1751,-1330 3135,-1330 606,0 1298,135 2076,408 308,105 489,158 541,158 63,0 137,-30 223,-91l137 74 -738 1574 -133 -67c0,-15 0,-26 0,-34 0,-137 -139,-278 -414,-425 -510,-272 -1059,-408 -1644,-408 -675,0 -1228,185 -1660,553 -456,387 -683,907 -683,1563 0,614 206,1103 620,1471 425,376 1019,564 1786,564 730,0 1345,-135 1848,-408l0 -953z"/>
  <ellipse class="fil10" cx="93098" cy="163446" rx="14151" ry="14368"/>
  <circle class="fil11" cx="93098" cy="163446" r="6814"/>
  <ellipse class="fil10" cx="236651" cy="165426" rx="14151" ry="14368"/>
  <circle class="fil11" cx="236651" cy="165426" r="6814"/>
 </g>
</svg>
